<?xml version="1.0" encoding="us-ascii" standalone="no"?><svg xmlns="http://www.w3.org/2000/svg" xmlns:xlink="http://www.w3.org/1999/xlink" contentStyleType="text/css" height="598px" preserveAspectRatio="none" style="width:1194px;height:598px;background:#FFFFFF;" version="1.1" viewBox="0 0 1194 598" width="1194px" zoomAndPan="magnify"><defs/><g><text fill="#000000" font-family="sans-serif" font-size="14" font-weight="bold" lengthAdjust="spacing" textLength="209" x="485.89" y="25.1074">Library components overview</text><!--entity RL--><g id="elem_RL"><rect fill="#F1F1F1" height="48.6211" rx="2.5" ry="2.5" style="stroke:#181818;stroke-width:0.5;" width="135" x="472.28" y="409.1211"/><rect fill="#F1F1F1" height="10" style="stroke:#181818;stroke-width:0.5;" width="15" x="587.28" y="414.1211"/><rect fill="#F1F1F1" height="2" style="stroke:#181818;stroke-width:0.5;" width="4" x="585.28" y="416.1211"/><rect fill="#F1F1F1" height="2" style="stroke:#181818;stroke-width:0.5;" width="4" x="585.28" y="420.1211"/><text fill="#000000" font-family="sans-serif" font-size="14" lengthAdjust="spacing" textLength="95" x="487.28" y="444.2285">ReactorLogger</text></g><!--entity RKL--><g id="elem_RKL"><rect fill="#F1F1F1" height="48.6211" rx="2.5" ry="2.5" style="stroke:#181818;stroke-width:0.5;" width="144" x="899.78" y="409.1211"/><rect fill="#F1F1F1" height="10" style="stroke:#181818;stroke-width:0.5;" width="15" x="1023.78" y="414.1211"/><rect fill="#F1F1F1" height="2" style="stroke:#181818;stroke-width:0.5;" width="4" x="1021.78" y="416.1211"/><rect fill="#F1F1F1" height="2" style="stroke:#181818;stroke-width:0.5;" width="4" x="1021.78" y="420.1211"/><text fill="#000000" font-family="sans-serif" font-size="14" lengthAdjust="spacing" textLength="104" x="914.78" y="444.2285">ReactorKLogger</text></g><!--entity CL--><g id="elem_CL"><rect fill="#F1F1F1" height="48.6211" rx="2.5" ry="2.5" style="stroke:#181818;stroke-width:0.5;" width="147" x="466.28" y="274.6211"/><rect fill="#F1F1F1" height="10" style="stroke:#181818;stroke-width:0.5;" width="15" x="593.28" y="279.6211"/><rect fill="#F1F1F1" height="2" style="stroke:#181818;stroke-width:0.5;" width="4" x="591.28" y="281.6211"/><rect fill="#F1F1F1" height="2" style="stroke:#181818;stroke-width:0.5;" width="4" x="591.28" y="285.6211"/><text fill="#000000" font-family="sans-serif" font-size="14" lengthAdjust="spacing" textLength="107" x="481.28" y="309.7285">CoroutineLogger</text></g><!--entity CKL--><g id="elem_CKL"><rect fill="#F1F1F1" height="48.6211" rx="2.5" ry="2.5" style="stroke:#181818;stroke-width:0.5;" width="156" x="893.78" y="274.6211"/><rect fill="#F1F1F1" height="10" style="stroke:#181818;stroke-width:0.5;" width="15" x="1029.78" y="279.6211"/><rect fill="#F1F1F1" height="2" style="stroke:#181818;stroke-width:0.5;" width="4" x="1027.78" y="281.6211"/><rect fill="#F1F1F1" height="2" style="stroke:#181818;stroke-width:0.5;" width="4" x="1027.78" y="285.6211"/><text fill="#000000" font-family="sans-serif" font-size="14" lengthAdjust="spacing" textLength="116" x="908.78" y="309.7285">CoroutineKLogger</text></g><!--entity Core--><g id="elem_Core"><rect fill="#F1F1F1" height="48.6211" rx="2.5" ry="2.5" style="stroke:#181818;stroke-width:0.5;" width="71" x="754.28" y="543.6211"/><rect fill="#F1F1F1" height="10" style="stroke:#181818;stroke-width:0.5;" width="15" x="805.28" y="548.6211"/><rect fill="#F1F1F1" height="2" style="stroke:#181818;stroke-width:0.5;" width="4" x="803.28" y="550.6211"/><rect fill="#F1F1F1" height="2" style="stroke:#181818;stroke-width:0.5;" width="4" x="803.28" y="554.6211"/><text fill="#000000" font-family="sans-serif" font-size="14" lengthAdjust="spacing" textLength="31" x="769.28" y="578.7285">Core</text></g><!--entity Using--><g id="elem_Using"><ellipse cx="809.78" cy="164.6211" fill="#F1F1F1" rx="8" ry="8" style="stroke:#181818;stroke-width:0.5;"/><text fill="#000000" font-family="sans-serif" font-size="14" lengthAdjust="spacing" textLength="35" x="792.28" y="196.7285">Using</text></g><g id="elem_GMN16"><path d="M682.78,45.6211 L682.78,72.9121 A0,0 0 0 0 682.78,72.9121 L805.78,72.9121 L809.78,155.5811 L813.78,72.9121 L936.78,72.9121 A0,0 0 0 0 936.78,72.9121 L936.78,55.6211 L926.78,45.6211 L682.78,45.6211 A0,0 0 0 0 682.78,45.6211 " fill="#FEFFDD" style="stroke:#181818;stroke-width:0.5;"/><path d="M926.78,45.6211 L926.78,55.6211 L936.78,55.6211 L926.78,45.6211 " fill="#FEFFDD" style="stroke:#181818;stroke-width:0.5;"/><text fill="#000000" font-family="sans-serif" font-size="13" lengthAdjust="spacing" textLength="233" x="688.78" y="64.6494">Any developer, who wants to use library.</text></g><g id="elem_GMN19"><path d="M220.78,276.6211 L220.78,321.2031 A0,0 0 0 0 220.78,321.2031 L430.78,321.2031 A0,0 0 0 0 430.78,321.2031 L430.78,303.1211 L465.92,299.1211 L430.78,295.1211 L430.78,286.6211 L420.78,276.6211 L220.78,276.6211 A0,0 0 0 0 220.78,276.6211 " fill="#FEFFDD" style="stroke:#181818;stroke-width:0.5;"/><path d="M420.78,276.6211 L420.78,286.6211 L430.78,286.6211 L420.78,276.6211 " fill="#FEFFDD" style="stroke:#181818;stroke-width:0.5;"/><text fill="#000000" font-family="sans-serif" font-size="13" lengthAdjust="spacing" textLength="144" x="226.78" y="295.6494">All suspend methods will</text><text fill="#000000" font-family="sans-serif" font-size="13" lengthAdjust="spacing" textLength="189" x="226.78" y="312.9404">be reduced to Reactor operation.</text></g><g id="elem_GMN22"><path d="M648.78,276.6211 L648.78,321.2031 A0,0 0 0 0 648.78,321.2031 L858.78,321.2031 A0,0 0 0 0 858.78,321.2031 L858.78,303.1211 L893.77,299.1211 L858.78,295.1211 L858.78,286.6211 L848.78,276.6211 L648.78,276.6211 A0,0 0 0 0 648.78,276.6211 " fill="#FEFFDD" style="stroke:#181818;stroke-width:0.5;"/><path d="M848.78,276.6211 L848.78,286.6211 L858.78,286.6211 L848.78,276.6211 " fill="#FEFFDD" style="stroke:#181818;stroke-width:0.5;"/><text fill="#000000" font-family="sans-serif" font-size="13" lengthAdjust="spacing" textLength="144" x="654.78" y="295.6494">All suspend methods will</text><text fill="#000000" font-family="sans-serif" font-size="13" lengthAdjust="spacing" textLength="189" x="654.78" y="312.9404">be reduced to Reactor operation.</text></g><g id="elem_GMN25"><path d="M266.78,402.6211 L266.78,464.4941 A0,0 0 0 0 266.78,464.4941 L436.78,464.4941 A0,0 0 0 0 436.78,464.4941 L436.78,437.6211 L471.91,433.6211 L436.78,429.6211 L436.78,412.6211 L426.78,402.6211 L266.78,402.6211 A0,0 0 0 0 266.78,402.6211 " fill="#FEFFDD" style="stroke:#181818;stroke-width:0.5;"/><path d="M426.78,402.6211 L426.78,412.6211 L436.78,412.6211 L426.78,402.6211 " fill="#FEFFDD" style="stroke:#181818;stroke-width:0.5;"/><text fill="#000000" font-family="sans-serif" font-size="13" lengthAdjust="spacing" textLength="149" x="272.78" y="421.6494">It makes a runnable block</text><text fill="#000000" font-family="sans-serif" font-size="13" lengthAdjust="spacing" textLength="106" x="272.78" y="438.9404">with a Slf4j Logger</text><text fill="#000000" font-family="sans-serif" font-size="13" lengthAdjust="spacing" textLength="135" x="272.78" y="456.2314">and gives it to the core.</text></g><g id="elem_GMN28"><path d="M694.78,402.6211 L694.78,464.4941 A0,0 0 0 0 694.78,464.4941 L864.78,464.4941 A0,0 0 0 0 864.78,464.4941 L864.78,437.6211 L899.56,433.6211 L864.78,429.6211 L864.78,412.6211 L854.78,402.6211 L694.78,402.6211 A0,0 0 0 0 694.78,402.6211 " fill="#FEFFDD" style="stroke:#181818;stroke-width:0.5;"/><path d="M854.78,402.6211 L854.78,412.6211 L864.78,412.6211 L854.78,402.6211 " fill="#FEFFDD" style="stroke:#181818;stroke-width:0.5;"/><text fill="#000000" font-family="sans-serif" font-size="13" lengthAdjust="spacing" textLength="149" x="700.78" y="421.6494">It makes a runnable block</text><text fill="#000000" font-family="sans-serif" font-size="13" lengthAdjust="spacing" textLength="114" x="700.78" y="438.9404">with a Kotlin Logger</text><text fill="#000000" font-family="sans-serif" font-size="13" lengthAdjust="spacing" textLength="135" x="700.78" y="456.2314">and gives it to the core.</text></g><g id="elem_GMN31"><path d="M244.28,545.6211 L244.28,590.2031 A0,0 0 0 0 244.28,590.2031 L719.28,590.2031 A0,0 0 0 0 719.28,590.2031 L719.28,572.1211 L754.04,568.1211 L719.28,564.1211 L719.28,555.6211 L709.28,545.6211 L244.28,545.6211 A0,0 0 0 0 244.28,545.6211 " fill="#FEFFDD" style="stroke:#181818;stroke-width:0.5;"/><path d="M709.28,545.6211 L709.28,555.6211 L719.28,555.6211 L709.28,545.6211 " fill="#FEFFDD" style="stroke:#181818;stroke-width:0.5;"/><text fill="#000000" font-family="sans-serif" font-size="13" lengthAdjust="spacing" textLength="454" x="250.28" y="564.6494">It collects MDC information from Context, copies it to implemented (real) MDC,</text><text fill="#000000" font-family="sans-serif" font-size="13" lengthAdjust="spacing" textLength="418" x="250.28" y="581.9404">and a runnable block will be executed. After it, real MDC will be cleaned.</text></g><!--link Using to RL--><g id="link_Using_RL"><path d="M800.55,165.4611 C723.39,164.3111 185.96,160.5111 87.78,274.6211 C6,369.6711 83.5,298.5011 453.78,402.6211 C460.63,404.5511 462.0211,404.8748 469.0711,407.1548 " fill="none" id="Using-to-RL" style="stroke:#181818;stroke-width:1.0;stroke-dasharray:7.0,7.0;"/><polygon fill="#181818" points="474.78,409.0011,467.4475,402.4258,470.0226,407.4625,464.9858,410.0376,474.78,409.0011" style="stroke:#181818;stroke-width:1.0;"/><text fill="#000000" font-family="sans-serif" font-size="13" lengthAdjust="spacing" textLength="113" x="88.78" y="304.6494">Create and use API</text></g><!--link Using to RKL--><g id="link_Using_RKL"><path d="M818.9,165.4811 C860.51,165.4311 1031.78,171.5711 1067.78,274.6211 C1074.97,295.1811 1075.48,303.2511 1067.78,323.6211 C1054.69,358.3011 1029.5075,385.1539 1006.5775,405.0939 " fill="none" id="Using-to-RKL" style="stroke:#181818;stroke-width:1.0;stroke-dasharray:7.0,7.0;"/><polygon fill="#181818" points="1002.05,409.0311,1011.4661,406.1437,1005.823,405.7501,1006.2165,400.107,1002.05,409.0311" style="stroke:#181818;stroke-width:1.0;"/><text fill="#000000" font-family="sans-serif" font-size="13" lengthAdjust="spacing" textLength="113" x="1073.78" y="304.6494">Create and use API</text></g><!--link Using to CL--><g id="link_Using_CL"><path d="M800.49,170.1811 C767.38,186.4311 659.0865,239.5782 593.2765,271.8682 " fill="none" id="Using-to-CL" style="stroke:#181818;stroke-width:1.0;stroke-dasharray:7.0,7.0;"/><polygon fill="#181818" points="587.89,274.5111,597.7318,274.1377,592.3788,272.3086,594.2079,266.9557,587.89,274.5111" style="stroke:#181818;stroke-width:1.0;"/><text fill="#000000" font-family="sans-serif" font-size="13" lengthAdjust="spacing" textLength="113" x="684.78" y="240.6494">Create and use API</text></g><!--link Using to CKL--><g id="link_Using_CKL"><path d="M818.96,173.1211 C842.45,192.3411 900.9158,240.1522 938.2758,270.7122 " fill="none" id="Using-to-CKL" style="stroke:#181818;stroke-width:1.0;stroke-dasharray:7.0,7.0;"/><polygon fill="#181818" points="942.92,274.5111,938.4863,265.7166,939.0498,271.3454,933.4211,271.9089,942.92,274.5111" style="stroke:#181818;stroke-width:1.0;"/><text fill="#000000" font-family="sans-serif" font-size="13" lengthAdjust="spacing" textLength="113" x="906.78" y="240.6494">Create and use API</text></g><!--link CL to RL--><g id="link_CL_RL"><path d="M539.78,323.8111 C539.78,347.7811 539.78,378.6411 539.78,402.6911 " fill="none" id="CL-to-RL" style="stroke:#181818;stroke-width:1.0;stroke-dasharray:7.0,7.0;"/><polygon fill="#181818" points="539.78,408.6911,543.78,399.6911,539.78,403.6911,535.78,399.6911,539.78,408.6911" style="stroke:#181818;stroke-width:1.0;"/><text fill="#000000" font-family="sans-serif" font-size="13" lengthAdjust="spacing" textLength="21" x="540.78" y="368.6494">use</text></g><!--link CKL to RKL--><g id="link_CKL_RKL"><path d="M971.78,323.8111 C971.78,347.7811 971.78,378.6411 971.78,402.6911 " fill="none" id="CKL-to-RKL" style="stroke:#181818;stroke-width:1.0;stroke-dasharray:7.0,7.0;"/><polygon fill="#181818" points="971.78,408.6911,975.78,399.6911,971.78,403.6911,967.78,399.6911,971.78,408.6911" style="stroke:#181818;stroke-width:1.0;"/><text fill="#000000" font-family="sans-serif" font-size="13" lengthAdjust="spacing" textLength="21" x="972.78" y="368.6494">use</text></g><!--link RKL to Core--><g id="link_RKL_Core"><path d="M939.24,458.3111 C906.22,482.3511 860.231,515.8301 827.191,539.8801 " fill="none" id="RKL-to-Core" style="stroke:#181818;stroke-width:1.0;stroke-dasharray:7.0,7.0;"/><polygon fill="#181818" points="822.34,543.4111,831.9705,541.3485,826.3825,540.4686,827.2624,534.8806,822.34,543.4111" style="stroke:#181818;stroke-width:1.0;"/><text fill="#000000" font-family="sans-serif" font-size="13" lengthAdjust="spacing" textLength="116" x="887.78" y="509.6494">send runnable block</text></g><!--link RL to Core--><g id="link_RL_Core"><path d="M584.19,458.1611 C632.74,483.8911 704.2587,521.791 748.9687,545.491 " fill="none" id="RL-to-Core" style="stroke:#181818;stroke-width:1.0;stroke-dasharray:7.0,7.0;"/><polygon fill="#181818" points="754.27,548.3011,748.1915,540.5518,749.8523,545.9593,744.4447,547.6201,754.27,548.3011" style="stroke:#181818;stroke-width:1.0;"/><text fill="#000000" font-family="sans-serif" font-size="13" lengthAdjust="spacing" textLength="116" x="688.78" y="509.6494">send runnable block</text></g><!--SRC=[jPF1Rjim38RlUWeYbwr0vbnwwc50u5qAPy3WOW-WsBIjbHODYOxRjn_bf6xMfGY6OWPy8J_-Fw5V-jI93F5kind8UXbxoYhkD_eFxD7BbzhPDjZU675223kt3pOymm94u0E6WyF9cAK8gn9j9HnstBOOLc0ZbBiB_U8SAFuWSWuyYlDuXkINYNEL_2yLN1dpCphVGfPzrJNW3lA0LX2ihs6C2DiVz-T4SHN9hnD9v09XT7HPGuicWQ-kgLAUAcbrBKNKyJ1wR_Tw_dlYwj6KLmdZMPs51-06vhKCwBVrpr3Z0Oa736kOEeR9fX25vnNf66zcacIIE0aHDfAKD81PXWZY68T4zIWTrn4cHpGtzmW1wx72EgcUWePaQCMnVr-x-8_YvL7xNg2tZnZ1lZsmr9sSTDfveERs5nplr5nF0RRke6DEagrqg0yWuFjknJ_O5Ipa_8VyqaLuCQoO22kDzFkt79nlEFJpqK0Jk5VI2px9Mh71BGQk7mXxVJ1wh9_rqj9DcbuloxnTVyuZPO5FM8qwbS6s4GmgjuOqFvk_G1MXzSgyRlyR]--></g></svg>