<?xml version="1.0" encoding="us-ascii" standalone="no"?><svg xmlns="http://www.w3.org/2000/svg" xmlns:xlink="http://www.w3.org/1999/xlink" contentStyleType="text/css" height="1075.5px" preserveAspectRatio="none" style="width:981px;height:1075px;background:#FFFFFF;" version="1.1" viewBox="0 0 981 1075" width="981.9px" zoomAndPan="magnify"><defs/><g><rect fill="#FFFFFF" height="340.7572" style="stroke:#181818;stroke-width:0.9;" width="9" x="167.85" y="243.9686"/><rect fill="#FFFFFF" height="299.9953" style="stroke:#181818;stroke-width:0.9;" width="9" x="167.85" y="684.5115"/><rect fill="#FFFFFF" height="309.8953" style="stroke:#181818;stroke-width:0.9;" width="9" x="337.05" y="274.8305"/><rect fill="#FFFFFF" height="269.1334" style="stroke:#181818;stroke-width:0.9;" width="9" x="524.25" y="302.9924"/><rect fill="#FFFFFF" height="269.1334" style="stroke:#181818;stroke-width:0.9;" width="9" x="524.25" y="715.3734"/><rect fill="#FFFFFF" height="228.3715" style="stroke:#181818;stroke-width:0.9;" width="9" x="679.05" y="331.1543"/><rect fill="#FFFFFF" height="228.3715" style="stroke:#181818;stroke-width:0.9;" width="9" x="679.05" y="743.5354"/><rect fill="#FFFFFF" height="68.0238" style="stroke:#181818;stroke-width:0.9;" width="9" x="949.95" y="478.902"/><rect fill="#FFFFFF" height="68.0238" style="stroke:#181818;stroke-width:0.9;" width="9" x="949.95" y="891.283"/><line style="stroke:#181818;stroke-width:0.45;stroke-dasharray:5.0,5.0;" x1="171.9" x2="171.9" y1="75.259" y2="1000.7068"/><line style="stroke:#181818;stroke-width:0.45;stroke-dasharray:5.0,5.0;" x1="341.55" x2="341.55" y1="75.259" y2="1000.7068"/><line style="stroke:#181818;stroke-width:0.45;stroke-dasharray:5.0,5.0;" x1="528.3" x2="528.3" y1="75.259" y2="1000.7068"/><line style="stroke:#181818;stroke-width:0.45;stroke-dasharray:5.0,5.0;" x1="683.1" x2="683.1" y1="75.259" y2="1000.7068"/><line style="stroke:#181818;stroke-width:0.45;stroke-dasharray:5.0,5.0;" x1="954" x2="954" y1="75.259" y2="1000.7068"/><text fill="#000000" font-family="sans-serif" font-size="12.6" lengthAdjust="spacing" textLength="58.5" x="140.4" y="72.0967">Developer</text><ellipse cx="172.35" cy="12.15" fill="#E2E2F0" rx="7.2" ry="7.2" style="stroke:#181818;stroke-width:0.45;"/><path d="M172.35,19.35 L172.35,43.65 M160.65,26.55 L184.05,26.55 M172.35,43.65 L160.65,57.15 M172.35,43.65 L184.05,57.15 " fill="none" style="stroke:#181818;stroke-width:0.45;"/><text fill="#000000" font-family="sans-serif" font-size="12.6" lengthAdjust="spacing" textLength="58.5" x="140.4" y="1013.4035">Developer</text><ellipse cx="172.35" cy="1024.2158" fill="#E2E2F0" rx="7.2" ry="7.2" style="stroke:#181818;stroke-width:0.45;"/><path d="M172.35,1031.4158 L172.35,1055.7158 M160.65,1038.6158 L184.05,1038.6158 M172.35,1055.7158 L160.65,1069.2158 M172.35,1055.7158 L184.05,1069.2158 " fill="none" style="stroke:#181818;stroke-width:0.45;"/><text fill="#000000" font-family="sans-serif" font-size="12.6" lengthAdjust="spacing" textLength="113.4" x="282.15" y="72.0967">Coroutine(K)Logger</text><path d="M323.1,33.3 L323.1,54.9 M323.1,44.1 L338.4,44.1 " fill="none" style="stroke:#181818;stroke-width:0.45;"/><ellipse cx="349.2" cy="44.1" fill="#E2E2F0" rx="10.8" ry="10.8" style="stroke:#181818;stroke-width:0.45;"/><text fill="#000000" font-family="sans-serif" font-size="12.6" lengthAdjust="spacing" textLength="113.4" x="282.15" y="1013.4035">Coroutine(K)Logger</text><path d="M323.1,1020.1658 L323.1,1041.7658 M323.1,1030.9658 L338.4,1030.9658 " fill="none" style="stroke:#181818;stroke-width:0.45;"/><ellipse cx="349.2" cy="1030.9658" fill="#E2E2F0" rx="10.8" ry="10.8" style="stroke:#181818;stroke-width:0.45;"/><text fill="#000000" font-family="sans-serif" font-size="12.6" lengthAdjust="spacing" textLength="107.1" x="472.5" y="72.0967">Reactive(K)Logger</text><path d="M510.3,33.3 L510.3,54.9 M510.3,44.1 L525.6,44.1 " fill="none" style="stroke:#181818;stroke-width:0.45;"/><ellipse cx="536.4" cy="44.1" fill="#E2E2F0" rx="10.8" ry="10.8" style="stroke:#181818;stroke-width:0.45;"/><text fill="#000000" font-family="sans-serif" font-size="12.6" lengthAdjust="spacing" textLength="107.1" x="472.5" y="1013.4035">Reactive(K)Logger</text><path d="M510.3,1020.1658 L510.3,1041.7658 M510.3,1030.9658 L525.6,1030.9658 " fill="none" style="stroke:#181818;stroke-width:0.45;"/><ellipse cx="536.4" cy="1030.9658" fill="#E2E2F0" rx="10.8" ry="10.8" style="stroke:#181818;stroke-width:0.45;"/><text fill="#000000" font-family="sans-serif" font-size="12.6" lengthAdjust="spacing" textLength="27.9" x="666.9" y="72.0967">Core</text><ellipse cx="683.55" cy="44.1" fill="#E2E2F0" rx="10.8" ry="10.8" style="stroke:#181818;stroke-width:0.45;"/><polygon fill="#181818" points="679.95,33.3,685.35,28.8,683.55,33.3,685.35,37.8,679.95,33.3" style="stroke:#181818;stroke-width:0.9;"/><text fill="#000000" font-family="sans-serif" font-size="12.6" lengthAdjust="spacing" textLength="27.9" x="666.9" y="1013.4035">Core</text><ellipse cx="683.55" cy="1030.9658" fill="#E2E2F0" rx="10.8" ry="10.8" style="stroke:#181818;stroke-width:0.45;"/><polygon fill="#181818" points="679.95,1020.1658,685.35,1015.6658,683.55,1020.1658,685.35,1024.6658,679.95,1020.1658" style="stroke:#181818;stroke-width:0.9;"/><text fill="#000000" font-family="sans-serif" font-size="12.6" lengthAdjust="spacing" textLength="27.9" x="937.8" y="72.0967">MDC</text><ellipse cx="954.45" cy="44.1" fill="#E2E2F0" rx="10.8" ry="10.8" style="stroke:#181818;stroke-width:0.45;"/><line style="stroke:#181818;stroke-width:0.45;" x1="943.65" x2="965.25" y1="56.7" y2="56.7"/><text fill="#000000" font-family="sans-serif" font-size="12.6" lengthAdjust="spacing" textLength="27.9" x="937.8" y="1013.4035">MDC</text><ellipse cx="954.45" cy="1030.9658" fill="#E2E2F0" rx="10.8" ry="10.8" style="stroke:#181818;stroke-width:0.45;"/><line style="stroke:#181818;stroke-width:0.45;" x1="943.65" x2="965.25" y1="1043.5658" y2="1043.5658"/><rect fill="#FFFFFF" height="340.7572" style="stroke:#181818;stroke-width:0.9;" width="9" x="167.85" y="243.9686"/><rect fill="#FFFFFF" height="299.9953" style="stroke:#181818;stroke-width:0.9;" width="9" x="167.85" y="684.5115"/><rect fill="#FFFFFF" height="309.8953" style="stroke:#181818;stroke-width:0.9;" width="9" x="337.05" y="274.8305"/><rect fill="#FFFFFF" height="269.1334" style="stroke:#181818;stroke-width:0.9;" width="9" x="524.25" y="302.9924"/><rect fill="#FFFFFF" height="269.1334" style="stroke:#181818;stroke-width:0.9;" width="9" x="524.25" y="715.3734"/><rect fill="#FFFFFF" height="228.3715" style="stroke:#181818;stroke-width:0.9;" width="9" x="679.05" y="331.1543"/><rect fill="#FFFFFF" height="228.3715" style="stroke:#181818;stroke-width:0.9;" width="9" x="679.05" y="743.5354"/><rect fill="#FFFFFF" height="68.0238" style="stroke:#181818;stroke-width:0.9;" width="9" x="949.95" y="478.902"/><rect fill="#FFFFFF" height="68.0238" style="stroke:#181818;stroke-width:0.9;" width="9" x="949.95" y="891.283"/><rect fill="#EEEEEE" height="2.7" style="stroke:#EEEEEE;stroke-width:0.9;" width="975.6" x="0" y="103.7399"/><line style="stroke:#000000;stroke-width:0.9;" x1="0" x2="975.6" y1="103.7399" y2="103.7399"/><line style="stroke:#000000;stroke-width:0.9;" x1="0" x2="975.6" y1="106.4399" y2="106.4399"/><rect fill="#EEEEEE" height="22.7619" style="stroke:#000000;stroke-width:1.8;" width="152.1" x="411.75" y="93.259"/><text fill="#000000" font-family="sans-serif" font-size="11.7" font-weight="bold" lengthAdjust="spacing" textLength="135.9" x="417.15" y="109.4845">Use Coroutine(K)Logger</text><polygon fill="#181818" points="330.75,145.0828,339.75,148.6828,330.75,152.2828,334.35,148.6828" style="stroke:#181818;stroke-width:0.9;"/><line style="stroke:#181818;stroke-width:0.9;" x1="172.35" x2="336.15" y1="148.6828" y2="148.6828"/><text fill="#000000" font-family="sans-serif" font-size="11.7" lengthAdjust="spacing" textLength="107.1" x="178.65" y="143.9464">use get(K)Logger(...)</text><path d="M4.5,129.5209 L4.5,153.8209 L168.3,153.8209 L168.3,138.5209 L159.3,129.5209 L4.5,129.5209 " fill="#FEFFDD" style="stroke:#181818;stroke-width:0.45;"/><path d="M159.3,129.5209 L159.3,138.5209 L168.3,138.5209 L159.3,129.5209 " fill="#FEFFDD" style="stroke:#181818;stroke-width:0.45;"/><text fill="#000000" font-family="sans-serif" font-size="11.7" lengthAdjust="spacing" textLength="144.9" x="9.9" y="146.6464">Initialization coroutine proxy</text><polygon fill="#181818" points="517.95,175.9447,526.95,179.5447,517.95,183.1447,521.55,179.5447" style="stroke:#181818;stroke-width:0.9;"/><line style="stroke:#181818;stroke-width:0.9;" x1="341.55" x2="523.35" y1="179.5447" y2="179.5447"/><text fill="#000000" font-family="sans-serif" font-size="11.7" lengthAdjust="spacing" textLength="138.6" x="347.85" y="174.8083">Init. execution environment</text><polygon fill="#181818" points="351.45,206.8066,342.45,210.4066,351.45,214.0066,347.85,210.4066" style="stroke:#181818;stroke-width:0.9;"/><line style="stroke:#181818;stroke-width:0.9;" x1="346.05" x2="527.85" y1="210.4066" y2="210.4066"/><text fill="#000000" font-family="sans-serif" font-size="11.7" lengthAdjust="spacing" textLength="142.2" x="356.85" y="205.6702">Reactive(K)Logger instance</text><path d="M222.3,191.2447 L222.3,215.5447 L336.6,215.5447 L336.6,200.2447 L327.6,191.2447 L222.3,191.2447 " fill="#FEFFDD" style="stroke:#181818;stroke-width:0.45;"/><path d="M327.6,191.2447 L327.6,200.2447 L336.6,200.2447 L327.6,191.2447 " fill="#FEFFDD" style="stroke:#181818;stroke-width:0.45;"/><text fill="#000000" font-family="sans-serif" font-size="11.7" lengthAdjust="spacing" textLength="95.4" x="227.7" y="208.3702">Store the instance</text><polygon fill="#181818" points="186.75,240.3686,177.75,243.9686,186.75,247.5686,183.15,243.9686" style="stroke:#181818;stroke-width:0.9;"/><line style="stroke:#181818;stroke-width:0.9;" x1="181.35" x2="340.65" y1="243.9686" y2="243.9686"/><text fill="#000000" font-family="sans-serif" font-size="11.7" lengthAdjust="spacing" textLength="147.6" x="192.15" y="239.2321">Coroutine(K)Logger instance</text><path d="M37.8,224.8066 L37.8,249.1066 L162.9,249.1066 L162.9,233.8066 L153.9,224.8066 L37.8,224.8066 " fill="#FEFFDD" style="stroke:#181818;stroke-width:0.45;"/><path d="M153.9,224.8066 L153.9,233.8066 L162.9,233.8066 L153.9,224.8066 " fill="#FEFFDD" style="stroke:#181818;stroke-width:0.45;"/><text fill="#000000" font-family="sans-serif" font-size="11.7" lengthAdjust="spacing" textLength="106.2" x="43.2" y="241.9321">Available the logging</text><polygon fill="#181818" points="326.25,271.2305,335.25,274.8305,326.25,278.4305,329.85,274.8305" style="stroke:#181818;stroke-width:0.9;"/><line style="stroke:#181818;stroke-width:0.9;" x1="176.85" x2="331.65" y1="274.8305" y2="274.8305"/><text fill="#000000" font-family="sans-serif" font-size="11.7" lengthAdjust="spacing" textLength="118.8" x="183.15" y="270.094">use any logger method</text><polygon fill="#181818" points="513.45,299.3924,522.45,302.9924,513.45,306.5924,517.05,302.9924" style="stroke:#181818;stroke-width:0.9;"/><line style="stroke:#181818;stroke-width:0.9;" x1="346.05" x2="518.85" y1="302.9924" y2="302.9924"/><text fill="#000000" font-family="sans-serif" font-size="11.7" lengthAdjust="spacing" textLength="161.1" x="352.35" y="298.256">Convert to reactive environment</text><polygon fill="#181818" points="668.25,327.5543,677.25,331.1543,668.25,334.7543,671.85,331.1543" style="stroke:#181818;stroke-width:0.9;"/><line style="stroke:#181818;stroke-width:0.9;" x1="533.25" x2="673.65" y1="331.1543" y2="331.1543"/><text fill="#000000" font-family="sans-serif" font-size="11.7" lengthAdjust="spacing" textLength="38.7" x="539.55" y="326.4179">Make a</text><text fill="#000000" font-family="sans-serif" font-size="11.7" font-weight="bold" lengthAdjust="spacing" textLength="54.9" x="581.85" y="326.4179">Runnable</text><text fill="#000000" font-family="sans-serif" font-size="11.7" lengthAdjust="spacing" textLength="27.9" x="640.35" y="326.4179">block</text><line style="stroke:#181818;stroke-width:0.9;" x1="688.05" x2="725.85" y1="359.3162" y2="359.3162"/><line style="stroke:#181818;stroke-width:0.9;" x1="725.85" x2="725.85" y1="359.3162" y2="371.0162"/><line style="stroke:#181818;stroke-width:0.9;" x1="688.95" x2="725.85" y1="371.0162" y2="371.0162"/><polygon fill="#181818" points="697.95,367.4162,688.95,371.0162,697.95,374.6162,694.35,371.0162" style="stroke:#181818;stroke-width:0.9;"/><text fill="#000000" font-family="sans-serif" font-size="11.7" lengthAdjust="spacing" textLength="237.6" x="694.35" y="354.5798">Trigger BEFORE MDC map modification hook</text><line style="stroke:#181818;stroke-width:0.9;" x1="688.05" x2="725.85" y1="399.1781" y2="399.1781"/><line style="stroke:#181818;stroke-width:0.9;" x1="725.85" x2="725.85" y1="399.1781" y2="410.8781"/><line style="stroke:#181818;stroke-width:0.9;" x1="688.95" x2="725.85" y1="410.8781" y2="410.8781"/><polygon fill="#181818" points="697.95,407.2781,688.95,410.8781,697.95,414.4781,694.35,410.8781" style="stroke:#181818;stroke-width:0.9;"/><text fill="#000000" font-family="sans-serif" font-size="11.7" lengthAdjust="spacing" textLength="249.3" x="694.35" y="394.4417">Append to MDC map the ContextView snapshot</text><line style="stroke:#181818;stroke-width:0.9;" x1="688.05" x2="725.85" y1="439.04" y2="439.04"/><line style="stroke:#181818;stroke-width:0.9;" x1="725.85" x2="725.85" y1="439.04" y2="450.74"/><line style="stroke:#181818;stroke-width:0.9;" x1="688.95" x2="725.85" y1="450.74" y2="450.74"/><polygon fill="#181818" points="697.95,447.14,688.95,450.74,697.95,454.34,694.35,450.74" style="stroke:#181818;stroke-width:0.9;"/><text fill="#000000" font-family="sans-serif" font-size="11.7" lengthAdjust="spacing" textLength="230.4" x="694.35" y="434.3036">Trigger AFTER MDC map  modification hook</text><polygon fill="#181818" points="939.15,475.302,948.15,478.902,939.15,482.502,942.75,478.902" style="stroke:#181818;stroke-width:0.9;"/><line style="stroke:#181818;stroke-width:0.9;" x1="688.05" x2="944.55" y1="478.902" y2="478.902"/><text fill="#000000" font-family="sans-serif" font-size="11.7" lengthAdjust="spacing" textLength="102.6" x="694.35" y="474.1655">MDC map write into</text><line style="stroke:#181818;stroke-width:0.9;" x1="688.05" x2="725.85" y1="507.0639" y2="507.0639"/><line style="stroke:#181818;stroke-width:0.9;" x1="725.85" x2="725.85" y1="507.0639" y2="518.7639"/><line style="stroke:#181818;stroke-width:0.9;" x1="688.95" x2="725.85" y1="518.7639" y2="518.7639"/><polygon fill="#181818" points="697.95,515.1639,688.95,518.7639,697.95,522.3639,694.35,518.7639" style="stroke:#181818;stroke-width:0.9;"/><text fill="#000000" font-family="sans-serif" font-size="11.7" lengthAdjust="spacing" textLength="63" x="694.35" y="502.3274">Execute the</text><text fill="#000000" font-family="sans-serif" font-size="11.7" font-weight="bold" lengthAdjust="spacing" textLength="54.9" x="760.95" y="502.3274">Runnable</text><text fill="#000000" font-family="sans-serif" font-size="11.7" lengthAdjust="spacing" textLength="27.9" x="819.45" y="502.3274">block</text><path d="M490.5,493.752 L490.5,518.052 L674.1,518.052 L674.1,502.752 L665.1,493.752 L490.5,493.752 " fill="#FEFFDD" style="stroke:#181818;stroke-width:0.45;"/><path d="M665.1,493.752 L665.1,502.752 L674.1,502.752 L665.1,493.752 " fill="#FEFFDD" style="stroke:#181818;stroke-width:0.45;"/><text fill="#000000" font-family="sans-serif" font-size="11.7" lengthAdjust="spacing" textLength="164.7" x="495.9" y="510.8774">Where the log event is recorded</text><polygon fill="#181818" points="943.65,543.3258,952.65,546.9258,943.65,550.5258,947.25,546.9258" style="stroke:#181818;stroke-width:0.9;"/><line style="stroke:#181818;stroke-width:0.9;" x1="688.05" x2="949.05" y1="546.9258" y2="546.9258"/><text fill="#000000" font-family="sans-serif" font-size="11.7" lengthAdjust="spacing" textLength="38.7" x="694.35" y="542.1894">to clear</text><polygon fill="#181818" points="543.15,555.9258,534.15,559.5258,543.15,563.1258,539.55,559.5258" style="stroke:#181818;stroke-width:0.9;"/><line style="stroke:#181818;stroke-width:0.9;stroke-dasharray:2.0,2.0;" x1="537.75" x2="682.65" y1="559.5258" y2="559.5258"/><polygon fill="#181818" points="355.95,568.5258,346.95,572.1258,355.95,575.7258,352.35,572.1258" style="stroke:#181818;stroke-width:0.9;"/><line style="stroke:#181818;stroke-width:0.9;stroke-dasharray:2.0,2.0;" x1="350.55" x2="527.85" y1="572.1258" y2="572.1258"/><polygon fill="#181818" points="182.25,581.1258,173.25,584.7258,182.25,588.3258,178.65,584.7258" style="stroke:#181818;stroke-width:0.9;"/><line style="stroke:#181818;stroke-width:0.9;stroke-dasharray:2.0,2.0;" x1="176.85" x2="340.65" y1="584.7258" y2="584.7258"/><rect fill="#EEEEEE" height="2.7" style="stroke:#EEEEEE;stroke-width:0.9;" width="975.6" x="0" y="611.4067"/><line style="stroke:#000000;stroke-width:0.9;" x1="0" x2="975.6" y1="611.4067" y2="611.4067"/><line style="stroke:#000000;stroke-width:0.9;" x1="0" x2="975.6" y1="614.1067" y2="614.1067"/><rect fill="#EEEEEE" height="22.7619" style="stroke:#000000;stroke-width:1.8;" width="145.8" x="414.9" y="600.9258"/><text fill="#000000" font-family="sans-serif" font-size="11.7" font-weight="bold" lengthAdjust="spacing" textLength="129.6" x="420.3" y="617.1513">Use Reactive(K)Logger</text><polygon fill="#181818" points="517.95,650.0496,526.95,653.6496,517.95,657.2496,521.55,653.6496" style="stroke:#181818;stroke-width:0.9;"/><line style="stroke:#181818;stroke-width:0.9;" x1="172.35" x2="523.35" y1="653.6496" y2="653.6496"/><text fill="#000000" font-family="sans-serif" font-size="11.7" lengthAdjust="spacing" textLength="107.1" x="178.65" y="648.9132">use get(K)Logger(...)</text><polygon fill="#181818" points="186.75,680.9115,177.75,684.5115,186.75,688.1115,183.15,684.5115" style="stroke:#181818;stroke-width:0.9;"/><line style="stroke:#181818;stroke-width:0.9;" x1="181.35" x2="527.85" y1="684.5115" y2="684.5115"/><text fill="#000000" font-family="sans-serif" font-size="11.7" lengthAdjust="spacing" textLength="142.2" x="192.15" y="679.7751">Reactive(K)Logger instance</text><path d="M37.8,665.3496 L37.8,689.6496 L162.9,689.6496 L162.9,674.3496 L153.9,665.3496 L37.8,665.3496 " fill="#FEFFDD" style="stroke:#181818;stroke-width:0.45;"/><path d="M153.9,665.3496 L153.9,674.3496 L162.9,674.3496 L153.9,665.3496 " fill="#FEFFDD" style="stroke:#181818;stroke-width:0.45;"/><text fill="#000000" font-family="sans-serif" font-size="11.7" lengthAdjust="spacing" textLength="106.2" x="43.2" y="682.4751">Available the logging</text><polygon fill="#181818" points="513.45,711.7734,522.45,715.3734,513.45,718.9734,517.05,715.3734" style="stroke:#181818;stroke-width:0.9;"/><line style="stroke:#181818;stroke-width:0.9;" x1="176.85" x2="518.85" y1="715.3734" y2="715.3734"/><text fill="#000000" font-family="sans-serif" font-size="11.7" lengthAdjust="spacing" textLength="118.8" x="183.15" y="710.637">use any logger method</text><polygon fill="#181818" points="668.25,739.9354,677.25,743.5354,668.25,747.1354,671.85,743.5354" style="stroke:#181818;stroke-width:0.9;"/><line style="stroke:#181818;stroke-width:0.9;" x1="533.25" x2="673.65" y1="743.5354" y2="743.5354"/><text fill="#000000" font-family="sans-serif" font-size="11.7" lengthAdjust="spacing" textLength="38.7" x="539.55" y="738.7989">Make a</text><text fill="#000000" font-family="sans-serif" font-size="11.7" font-weight="bold" lengthAdjust="spacing" textLength="54.9" x="581.85" y="738.7989">Runnable</text><text fill="#000000" font-family="sans-serif" font-size="11.7" lengthAdjust="spacing" textLength="27.9" x="640.35" y="738.7989">block</text><line style="stroke:#181818;stroke-width:0.9;" x1="688.05" x2="725.85" y1="771.6973" y2="771.6973"/><line style="stroke:#181818;stroke-width:0.9;" x1="725.85" x2="725.85" y1="771.6973" y2="783.3973"/><line style="stroke:#181818;stroke-width:0.9;" x1="688.95" x2="725.85" y1="783.3973" y2="783.3973"/><polygon fill="#181818" points="697.95,779.7973,688.95,783.3973,697.95,786.9973,694.35,783.3973" style="stroke:#181818;stroke-width:0.9;"/><text fill="#000000" font-family="sans-serif" font-size="11.7" lengthAdjust="spacing" textLength="237.6" x="694.35" y="766.9608">Trigger BEFORE MDC map modification hook</text><line style="stroke:#181818;stroke-width:0.9;" x1="688.05" x2="725.85" y1="811.5592" y2="811.5592"/><line style="stroke:#181818;stroke-width:0.9;" x1="725.85" x2="725.85" y1="811.5592" y2="823.2592"/><line style="stroke:#181818;stroke-width:0.9;" x1="688.95" x2="725.85" y1="823.2592" y2="823.2592"/><polygon fill="#181818" points="697.95,819.6592,688.95,823.2592,697.95,826.8592,694.35,823.2592" style="stroke:#181818;stroke-width:0.9;"/><text fill="#000000" font-family="sans-serif" font-size="11.7" lengthAdjust="spacing" textLength="249.3" x="694.35" y="806.8228">Append to MDC map the ContextView snapshot</text><line style="stroke:#181818;stroke-width:0.9;" x1="688.05" x2="725.85" y1="851.4211" y2="851.4211"/><line style="stroke:#181818;stroke-width:0.9;" x1="725.85" x2="725.85" y1="851.4211" y2="863.1211"/><line style="stroke:#181818;stroke-width:0.9;" x1="688.95" x2="725.85" y1="863.1211" y2="863.1211"/><polygon fill="#181818" points="697.95,859.5211,688.95,863.1211,697.95,866.7211,694.35,863.1211" style="stroke:#181818;stroke-width:0.9;"/><text fill="#000000" font-family="sans-serif" font-size="11.7" lengthAdjust="spacing" textLength="230.4" x="694.35" y="846.6847">Trigger AFTER MDC map  modification hook</text><polygon fill="#181818" points="939.15,887.683,948.15,891.283,939.15,894.883,942.75,891.283" style="stroke:#181818;stroke-width:0.9;"/><line style="stroke:#181818;stroke-width:0.9;" x1="688.05" x2="944.55" y1="891.283" y2="891.283"/><text fill="#000000" font-family="sans-serif" font-size="11.7" lengthAdjust="spacing" textLength="102.6" x="694.35" y="886.5466">MDC map write into</text><line style="stroke:#181818;stroke-width:0.9;" x1="688.05" x2="725.85" y1="919.4449" y2="919.4449"/><line style="stroke:#181818;stroke-width:0.9;" x1="725.85" x2="725.85" y1="919.4449" y2="931.1449"/><line style="stroke:#181818;stroke-width:0.9;" x1="688.95" x2="725.85" y1="931.1449" y2="931.1449"/><polygon fill="#181818" points="697.95,927.5449,688.95,931.1449,697.95,934.7449,694.35,931.1449" style="stroke:#181818;stroke-width:0.9;"/><text fill="#000000" font-family="sans-serif" font-size="11.7" lengthAdjust="spacing" textLength="63" x="694.35" y="914.7085">Execute the</text><text fill="#000000" font-family="sans-serif" font-size="11.7" font-weight="bold" lengthAdjust="spacing" textLength="54.9" x="760.95" y="914.7085">Runnable</text><text fill="#000000" font-family="sans-serif" font-size="11.7" lengthAdjust="spacing" textLength="27.9" x="819.45" y="914.7085">block</text><path d="M490.5,906.133 L490.5,930.433 L674.1,930.433 L674.1,915.133 L665.1,906.133 L490.5,906.133 " fill="#FEFFDD" style="stroke:#181818;stroke-width:0.45;"/><path d="M665.1,906.133 L665.1,915.133 L674.1,915.133 L665.1,906.133 " fill="#FEFFDD" style="stroke:#181818;stroke-width:0.45;"/><text fill="#000000" font-family="sans-serif" font-size="11.7" lengthAdjust="spacing" textLength="164.7" x="495.9" y="923.2585">Where the log event is recorded</text><polygon fill="#181818" points="943.65,955.7068,952.65,959.3068,943.65,962.9068,947.25,959.3068" style="stroke:#181818;stroke-width:0.9;"/><line style="stroke:#181818;stroke-width:0.9;" x1="688.05" x2="949.05" y1="959.3068" y2="959.3068"/><text fill="#000000" font-family="sans-serif" font-size="11.7" lengthAdjust="spacing" textLength="38.7" x="694.35" y="954.5704">to clear</text><polygon fill="#181818" points="543.15,968.3068,534.15,971.9068,543.15,975.5068,539.55,971.9068" style="stroke:#181818;stroke-width:0.9;"/><line style="stroke:#181818;stroke-width:0.9;stroke-dasharray:2.0,2.0;" x1="537.75" x2="682.65" y1="971.9068" y2="971.9068"/><polygon fill="#181818" points="182.25,980.9068,173.25,984.5068,182.25,988.1068,178.65,984.5068" style="stroke:#181818;stroke-width:0.9;"/><line style="stroke:#181818;stroke-width:0.9;stroke-dasharray:2.0,2.0;" x1="176.85" x2="527.85" y1="984.5068" y2="984.5068"/><!--SRC=[xLF1Rjf04BtlLunoQO84tArIYH0YLKbKoKtRys9Fy8hrZhiUEz2lxuuDnWRILhrLAWSaQzwyDpFlxRkCkIYZwRImsd6Lsqb2-RJ4xnMw1CUfqMklSwLqmkIX_TrXZPOAzA1B-L0hgbog_KwALmloLB5nUFrmyqZhDVehmIqU7eUu60EdgKzWSO0bvDYJRRG26ofqR7ZNYZ_TBPIQpU1BYN0k1REPKc4a67yGnGYg05iZTu3hoMHoenmnWiKNZk2ZCsoqDJyq6tAG72YXyBJTgK0YNB5m2NG2kCMaQh3eQkF9vM6y1lT-tEBEDWFZIjRXddtXp-6W29pXiIg31v9cy0kxTRY6NWScENwFSbvhO_NAjhGsT1ctFZk7Thkc5XXpv8pI8v-OrDzuGQv6py04Vh_KOEkkKMoBsqPnB88dlGbAC1h5bNCoqcW4Aql9fYScrihViUlPcsQks-NzftWfNaEk2yWfDIycQHtAY3OdRVEYG9VAb8SEsJyCpxZbhmPVeNIwA3FYD_Jczy_Bk6l-XLw0H1tkrHiMzvYEIqayXnhB9Y-j9HVEqRFlMuQ-imx28tCCfWoN3w5CCHqE4PPDB6glKXo8nqqGn-rrUxNsslkYsDMhoMURlIPyWxRXfmJkyFhEOzvxVF7RZs-VyjyzbRyAUVm78V-VrNyYguT0NiZgII1_0W00]--></g></svg>